<mxfile host="app.diagrams.net" modified="2022-12-16T15:13:14.109Z" agent="5.0 (Windows NT 10.0; Win64; x64) AppleWebKit/537.36 (KHTML, like Gecko) Chrome/108.0.0.0 Safari/537.36" etag="_8CXxMJAPESxeTOzzWHA" version="20.7.4" type="github">
  <diagram name="Page-1" id="e7e014a7-5840-1c2e-5031-d8a46d1fe8dd">
    <mxGraphModel dx="1313" dy="726" grid="1" gridSize="10" guides="1" tooltips="1" connect="1" arrows="1" fold="1" page="1" pageScale="1" pageWidth="1169" pageHeight="826" background="none" math="0" shadow="0">
      <root>
        <mxCell id="0" />
        <mxCell id="1" parent="0" />
        <mxCell id="3" value="کاربر" style="swimlane;whiteSpace=wrap" parent="1" vertex="1">
          <mxGeometry x="444.5" y="128" width="280" height="570" as="geometry" />
        </mxCell>
        <mxCell id="13" value="" style="ellipse;shape=startState;fillColor=#000000;strokeColor=#ff0000;" parent="3" vertex="1">
          <mxGeometry x="125" y="32" width="30" height="30" as="geometry" />
        </mxCell>
        <mxCell id="oexe1q9IaSBwBI4Qt1IO-45" value="پر کردن اطلاعات" style="rounded=1;whiteSpace=wrap;html=1;" vertex="1" parent="3">
          <mxGeometry x="80.5" y="162" width="120" height="60" as="geometry" />
        </mxCell>
        <mxCell id="oexe1q9IaSBwBI4Qt1IO-46" value="وارد کردن شماره تماس" style="rounded=1;whiteSpace=wrap;html=1;" vertex="1" parent="3">
          <mxGeometry x="80.5" y="242" width="120" height="60" as="geometry" />
        </mxCell>
        <mxCell id="oexe1q9IaSBwBI4Qt1IO-48" value="" style="endArrow=open;strokeColor=#FF0000;endFill=1;rounded=0;exitX=0.511;exitY=1.012;exitDx=0;exitDy=0;exitPerimeter=0;entryX=0.516;entryY=0.019;entryDx=0;entryDy=0;entryPerimeter=0;" edge="1" parent="3" source="oexe1q9IaSBwBI4Qt1IO-45" target="oexe1q9IaSBwBI4Qt1IO-46">
          <mxGeometry relative="1" as="geometry">
            <mxPoint x="140.5" y="292" as="sourcePoint" />
            <mxPoint x="175.5" y="282" as="targetPoint" />
            <Array as="points" />
          </mxGeometry>
        </mxCell>
        <mxCell id="oexe1q9IaSBwBI4Qt1IO-51" value="وارد کردن کد تایید" style="rounded=1;whiteSpace=wrap;html=1;" vertex="1" parent="3">
          <mxGeometry x="80.5" y="322" width="120" height="60" as="geometry" />
        </mxCell>
        <mxCell id="oexe1q9IaSBwBI4Qt1IO-43" value="فشردن گزینه عضویت" style="rounded=1;whiteSpace=wrap;html=1;" vertex="1" parent="3">
          <mxGeometry x="80.5" y="82" width="120" height="60" as="geometry" />
        </mxCell>
        <mxCell id="oexe1q9IaSBwBI4Qt1IO-59" value="" style="endArrow=classic;html=1;rounded=0;entryX=0.502;entryY=-0.025;entryDx=0;entryDy=0;entryPerimeter=0;strokeColor=#FF0000;" edge="1" parent="3" source="13" target="oexe1q9IaSBwBI4Qt1IO-43">
          <mxGeometry width="50" height="50" relative="1" as="geometry">
            <mxPoint x="225.5" y="112" as="sourcePoint" />
            <mxPoint x="275.5" y="62" as="targetPoint" />
          </mxGeometry>
        </mxCell>
        <mxCell id="4" value="سامانه" style="swimlane;whiteSpace=wrap" parent="1" vertex="1">
          <mxGeometry x="724.5" y="128" width="280" height="570" as="geometry" />
        </mxCell>
        <mxCell id="38" value="" style="ellipse;shape=endState;fillColor=#000000;strokeColor=#ff0000" parent="4" vertex="1">
          <mxGeometry x="125" y="522" width="30" height="30" as="geometry" />
        </mxCell>
        <mxCell id="39" value="" style="endArrow=open;strokeColor=#FF0000;endFill=1;rounded=0" parent="4" source="oexe1q9IaSBwBI4Qt1IO-53" target="38" edge="1">
          <mxGeometry relative="1" as="geometry">
            <mxPoint x="140.5" y="472" as="sourcePoint" />
          </mxGeometry>
        </mxCell>
        <mxCell id="oexe1q9IaSBwBI4Qt1IO-44" value="نمایش فرم ثبت نام" style="rounded=1;whiteSpace=wrap;html=1;" vertex="1" parent="4">
          <mxGeometry x="80" y="82" width="120" height="60" as="geometry" />
        </mxCell>
        <mxCell id="21" value="صحت سنجی" style="rhombus;fillColor=#ffffc0;strokeColor=#ff0000;" parent="4" vertex="1">
          <mxGeometry x="100" y="372" width="80" height="40" as="geometry" />
        </mxCell>
        <mxCell id="oexe1q9IaSBwBI4Qt1IO-49" value="ارسال کد تایید&amp;nbsp;" style="rounded=1;whiteSpace=wrap;html=1;" vertex="1" parent="4">
          <mxGeometry x="80" y="242" width="120" height="60" as="geometry" />
        </mxCell>
        <mxCell id="oexe1q9IaSBwBI4Qt1IO-53" value="نمایش صفحه ورود" style="rounded=1;whiteSpace=wrap;html=1;" vertex="1" parent="4">
          <mxGeometry x="80" y="442" width="120" height="60" as="geometry" />
        </mxCell>
        <mxCell id="oexe1q9IaSBwBI4Qt1IO-62" value="" style="endArrow=classic;html=1;rounded=0;exitX=0.5;exitY=1;exitDx=0;exitDy=0;entryX=0.508;entryY=-0.05;entryDx=0;entryDy=0;entryPerimeter=0;strokeColor=#FF0000;" edge="1" parent="4" source="21" target="oexe1q9IaSBwBI4Qt1IO-53">
          <mxGeometry width="50" height="50" relative="1" as="geometry">
            <mxPoint x="-44.5" y="422" as="sourcePoint" />
            <mxPoint x="5.5" y="372" as="targetPoint" />
          </mxGeometry>
        </mxCell>
        <mxCell id="19" value="" style="endArrow=open;strokeColor=#FF0000;endFill=1;rounded=0;exitX=0.508;exitY=1.02;exitDx=0;exitDy=0;exitPerimeter=0;entryX=0.999;entryY=0.48;entryDx=0;entryDy=0;entryPerimeter=0;" parent="1" source="oexe1q9IaSBwBI4Qt1IO-44" target="oexe1q9IaSBwBI4Qt1IO-45" edge="1">
          <mxGeometry relative="1" as="geometry">
            <mxPoint x="519.16" y="390" as="sourcePoint" />
            <mxPoint x="519.16" y="470" as="targetPoint" />
            <Array as="points">
              <mxPoint x="865" y="319" />
              <mxPoint x="760" y="320" />
            </Array>
          </mxGeometry>
        </mxCell>
        <mxCell id="24" value="" style="endArrow=open;strokeColor=#FF0000;endFill=1;rounded=0;exitX=1.003;exitY=0.653;exitDx=0;exitDy=0;exitPerimeter=0;entryX=0.5;entryY=0;entryDx=0;entryDy=0;" parent="1" source="oexe1q9IaSBwBI4Qt1IO-51" target="21" edge="1">
          <mxGeometry relative="1" as="geometry">
            <mxPoint x="574.5" y="373" as="sourcePoint" />
            <Array as="points">
              <mxPoint x="670" y="490" />
              <mxPoint x="865" y="490" />
            </Array>
          </mxGeometry>
        </mxCell>
        <mxCell id="oexe1q9IaSBwBI4Qt1IO-50" value="" style="endArrow=open;strokeColor=#FF0000;endFill=1;rounded=0;exitX=1.011;exitY=0.445;exitDx=0;exitDy=0;exitPerimeter=0;entryX=-0.002;entryY=0.414;entryDx=0;entryDy=0;entryPerimeter=0;" edge="1" parent="1" source="oexe1q9IaSBwBI4Qt1IO-46" target="oexe1q9IaSBwBI4Qt1IO-49">
          <mxGeometry relative="1" as="geometry">
            <mxPoint x="968.0999999999998" y="433.19999999999993" as="sourcePoint" />
            <mxPoint x="800" y="397" as="targetPoint" />
            <Array as="points" />
          </mxGeometry>
        </mxCell>
        <mxCell id="oexe1q9IaSBwBI4Qt1IO-52" value="" style="endArrow=open;strokeColor=#FF0000;endFill=1;rounded=0;exitX=0.562;exitY=1.005;exitDx=0;exitDy=0;exitPerimeter=0;entryX=1.022;entryY=0.488;entryDx=0;entryDy=0;entryPerimeter=0;" edge="1" parent="1" source="oexe1q9IaSBwBI4Qt1IO-49" target="oexe1q9IaSBwBI4Qt1IO-51">
          <mxGeometry relative="1" as="geometry">
            <mxPoint x="849.9999999999998" y="535.5" as="sourcePoint" />
            <mxPoint x="630" y="580" as="targetPoint" />
            <Array as="points">
              <mxPoint x="872" y="480" />
            </Array>
          </mxGeometry>
        </mxCell>
        <mxCell id="23" value="رد" style="edgeStyle=elbowEdgeStyle;elbow=horizontal;align=left;verticalAlign=top;endArrow=open;endSize=8;strokeColor=#FF0000;endFill=1;rounded=0;entryX=0.004;entryY=0.674;entryDx=0;entryDy=0;entryPerimeter=0;" parent="1" source="21" target="oexe1q9IaSBwBI4Qt1IO-46" edge="1">
          <mxGeometry x="-1" relative="1" as="geometry">
            <mxPoint x="639.5" y="478" as="targetPoint" />
            <Array as="points">
              <mxPoint x="480" y="560" />
              <mxPoint x="690" y="510" />
              <mxPoint x="689.5" y="510" />
              <mxPoint x="709.5" y="500" />
            </Array>
          </mxGeometry>
        </mxCell>
        <mxCell id="oexe1q9IaSBwBI4Qt1IO-60" value="" style="endArrow=classic;html=1;rounded=0;exitX=1.008;exitY=0.534;exitDx=0;exitDy=0;exitPerimeter=0;entryX=0.012;entryY=0.506;entryDx=0;entryDy=0;entryPerimeter=0;strokeColor=#FF0000;" edge="1" parent="1" source="oexe1q9IaSBwBI4Qt1IO-43" target="oexe1q9IaSBwBI4Qt1IO-44">
          <mxGeometry width="50" height="50" relative="1" as="geometry">
            <mxPoint x="670" y="240" as="sourcePoint" />
            <mxPoint x="720" y="190" as="targetPoint" />
          </mxGeometry>
        </mxCell>
      </root>
    </mxGraphModel>
  </diagram>
</mxfile>
